<?xml version="1.0" encoding="UTF-8" standalone="no"?>
<!-- Created with Inkscape (http://www.inkscape.org/) -->

<svg
   width="104.365mm"
   height="104.365mm"
   viewBox="0 0 104.365 104.365"
   version="1.1"
   id="svg5"
   inkscape:version="1.2.2 (b0a84865, 2022-12-01)"
   sodipodi:docname="round_chicken.svg"
   xmlns:inkscape="http://www.inkscape.org/namespaces/inkscape"
   xmlns:sodipodi="http://sodipodi.sourceforge.net/DTD/sodipodi-0.dtd"
   xmlns:xlink="http://www.w3.org/1999/xlink"
   xmlns="http://www.w3.org/2000/svg"
   xmlns:svg="http://www.w3.org/2000/svg">
  <sodipodi:namedview
     id="namedview7"
     pagecolor="#ffffff"
     bordercolor="#666666"
     borderopacity="1.0"
     inkscape:showpageshadow="2"
     inkscape:pageopacity="0.0"
     inkscape:pagecheckerboard="0"
     inkscape:deskcolor="#d1d1d1"
     inkscape:document-units="mm"
     showgrid="false"
     inkscape:zoom="1.3147912"
     inkscape:cx="119.79089"
     inkscape:cy="195.08802"
     inkscape:window-width="1360"
     inkscape:window-height="715"
     inkscape:window-x="0"
     inkscape:window-y="25"
     inkscape:window-maximized="1"
     inkscape:current-layer="layer2" />
  <defs
     id="defs2">
    <linearGradient
       inkscape:collect="always"
       id="linearGradient4636">
      <stop
         style="stop-color:#ffb96e;stop-opacity:1;"
         offset="0"
         id="stop4632" />
      <stop
         style="stop-color:#de8400;stop-opacity:1;"
         offset="1"
         id="stop4634" />
    </linearGradient>
    <linearGradient
       inkscape:collect="always"
       id="linearGradient4421">
      <stop
         style="stop-color:#ff0000;stop-opacity:1;"
         offset="0"
         id="stop4417" />
      <stop
         style="stop-color:#800000;stop-opacity:1;"
         offset="1"
         id="stop4419" />
    </linearGradient>
    <inkscape:path-effect
       effect="taper_stroke"
       id="path-effect1269"
       is_visible="true"
       lpeversion="1"
       stroke_width="1.97"
       attach_start="1.3"
       end_offset="1.6"
       start_smoothing="0.5"
       end_smoothing="0.5"
       jointype="extrapolated"
       start_shape="center"
       end_shape="center"
       miter_limit="100" />
    <inkscape:path-effect
       effect="taper_stroke"
       id="path-effect1267"
       is_visible="true"
       lpeversion="1"
       stroke_width="1.87"
       attach_start="1.3"
       end_offset="1.9"
       start_smoothing="0.5"
       end_smoothing="0.5"
       jointype="extrapolated"
       start_shape="center"
       end_shape="center"
       miter_limit="100" />
    <inkscape:path-effect
       effect="taper_stroke"
       id="path-effect1265"
       is_visible="true"
       lpeversion="1"
       stroke_width="1.87"
       attach_start="1.3"
       end_offset="1.3"
       start_smoothing="0.5"
       end_smoothing="0.5"
       jointype="extrapolated"
       start_shape="center"
       end_shape="center"
       miter_limit="100" />
    <inkscape:path-effect
       effect="taper_stroke"
       id="path-effect1263"
       is_visible="true"
       lpeversion="1"
       stroke_width="1.97"
       attach_start="1.5"
       end_offset="1.7"
       start_smoothing="0.5"
       end_smoothing="0.5"
       jointype="extrapolated"
       start_shape="center"
       end_shape="center"
       miter_limit="100" />
    <inkscape:path-effect
       effect="spiro"
       id="path-effect1261"
       is_visible="true"
       lpeversion="1" />
    <inkscape:path-effect
       effect="spiro"
       id="path-effect1257"
       is_visible="true"
       lpeversion="1" />
    <inkscape:path-effect
       effect="spiro"
       id="path-effect1253"
       is_visible="true"
       lpeversion="1" />
    <inkscape:path-effect
       effect="spiro"
       id="path-effect1249"
       is_visible="true"
       lpeversion="1" />
    <inkscape:path-effect
       effect="taper_stroke"
       id="path-effect1215"
       is_visible="true"
       lpeversion="1"
       stroke_width="2.76"
       attach_start="1.9"
       end_offset="0"
       start_smoothing="0.5"
       end_smoothing="0.5"
       jointype="extrapolated"
       start_shape="center"
       end_shape="center"
       miter_limit="100" />
    <inkscape:path-effect
       effect="spiro"
       id="path-effect1213"
       is_visible="true"
       lpeversion="1" />
    <inkscape:path-effect
       effect="spiro"
       id="path-effect1209"
       is_visible="true"
       lpeversion="1" />
    <inkscape:path-effect
       effect="spiro"
       id="path-effect1205"
       is_visible="true"
       lpeversion="1" />
    <inkscape:path-effect
       effect="spiro"
       id="path-effect1201"
       is_visible="true"
       lpeversion="1" />
    <inkscape:path-effect
       effect="spiro"
       id="path-effect1075"
       is_visible="true"
       lpeversion="1" />
    <inkscape:path-effect
       effect="spiro"
       id="path-effect1071"
       is_visible="true"
       lpeversion="1" />
    <inkscape:path-effect
       effect="spiro"
       id="path-effect1067"
       is_visible="true"
       lpeversion="1" />
    <linearGradient
       inkscape:collect="always"
       id="linearGradient3397">
      <stop
         style="stop-color:#004040;stop-opacity:1;"
         offset="0"
         id="stop3541" />
      <stop
         style="stop-color:#008080;stop-opacity:1"
         offset="0.57324839"
         id="stop3395" />
    </linearGradient>
    <inkscape:path-effect
       effect="spiro"
       id="path-effect1826"
       is_visible="true"
       lpeversion="1" />
    <inkscape:path-effect
       effect="spiro"
       id="path-effect1822"
       is_visible="true"
       lpeversion="1" />
    <inkscape:path-effect
       effect="spiro"
       id="path-effect1818"
       is_visible="true"
       lpeversion="1" />
    <inkscape:path-effect
       effect="spiro"
       id="path-effect1814"
       is_visible="true"
       lpeversion="1" />
    <inkscape:path-effect
       effect="spiro"
       id="path-effect1810"
       is_visible="true"
       lpeversion="1" />
    <inkscape:path-effect
       effect="spiro"
       id="path-effect1806"
       is_visible="true"
       lpeversion="1" />
    <inkscape:path-effect
       effect="spiro"
       id="path-effect1796"
       is_visible="true"
       lpeversion="1" />
    <inkscape:path-effect
       effect="spiro"
       id="path-effect1696"
       is_visible="true"
       lpeversion="1" />
    <inkscape:path-effect
       effect="spiro"
       id="path-effect1692"
       is_visible="true"
       lpeversion="1" />
    <inkscape:path-effect
       effect="spiro"
       id="path-effect1688"
       is_visible="true"
       lpeversion="1" />
    <inkscape:path-effect
       effect="spiro"
       id="path-effect1684"
       is_visible="true"
       lpeversion="1" />
    <inkscape:path-effect
       effect="spiro"
       id="path-effect1680"
       is_visible="true"
       lpeversion="1" />
    <inkscape:path-effect
       effect="spiro"
       id="path-effect1822-9"
       is_visible="true"
       lpeversion="1" />
    <linearGradient
       inkscape:collect="always"
       xlink:href="#linearGradient3397"
       id="linearGradient3401"
       x1="90.474472"
       y1="152.39658"
       x2="90.107948"
       y2="142.43463"
       gradientUnits="userSpaceOnUse" />
    <linearGradient
       inkscape:collect="always"
       xlink:href="#linearGradient3397"
       id="linearGradient3645"
       gradientUnits="userSpaceOnUse"
       x1="90.474472"
       y1="152.39658"
       x2="90.107948"
       y2="142.43463"
       gradientTransform="translate(23.105408)" />
    <inkscape:path-effect
       effect="spiro"
       id="path-effect1067-3"
       is_visible="true"
       lpeversion="1" />
    <inkscape:path-effect
       effect="spiro"
       id="path-effect1213-0"
       is_visible="true"
       lpeversion="1" />
    <inkscape:path-effect
       effect="taper_stroke"
       id="path-effect1215-3"
       is_visible="true"
       lpeversion="1"
       stroke_width="2.76"
       attach_start="1.9"
       end_offset="0"
       start_smoothing="0.5"
       end_smoothing="0.5"
       jointype="extrapolated"
       start_shape="center"
       end_shape="center"
       miter_limit="100" />
    <linearGradient
       inkscape:collect="always"
       xlink:href="#linearGradient4421"
       id="linearGradient4423"
       x1="51.315186"
       y1="35.719391"
       x2="51.516422"
       y2="3.7228661"
       gradientUnits="userSpaceOnUse" />
    <linearGradient
       inkscape:collect="always"
       xlink:href="#linearGradient4636"
       id="linearGradient4638"
       x1="102.16911"
       y1="153.71106"
       x2="102.22105"
       y2="175.84703"
       gradientUnits="userSpaceOnUse" />
  </defs>
  <g
     inkscape:groupmode="layer"
     id="layer2"
     inkscape:label="Layer 2">
    <circle
       style="display:inline;fill:#ffffff;fill-opacity:1;stroke:#000000;stroke-width:4.365;stroke-linecap:round;stroke-linejoin:round;stroke-dasharray:none;stroke-dashoffset:1.23024"
       id="path234-8"
       cx="51.803024"
       cy="52.146206"
       r="50" />
    <path
       style="fill:url(#linearGradient4423);stroke:none;stroke-width:0.264583px;stroke-linecap:butt;stroke-linejoin:miter;stroke-opacity:1;fill-opacity:1"
       d="m 50.510238,2.4148322 -5.433372,1.609888 -1.207415,1.8111242 -1.207416,2.8173042 0.603708,3.6222484 2.213597,2.817304 -2.01236,2.414832 -0.402474,3.622248 c 0,0 0.201237,2.012361 0.402474,2.817305 0.201234,0.804944 1.609886,2.213596 1.609886,2.213596 l -1.811123,2.414831 -0.402471,4.02472 2.213594,2.61607 3.421012,1.207416 3.018542,-0.201237 3.622249,0.201237 3.219775,-2.616068 1.609889,-3.622249 -1.811126,-4.829664 c 0,0 1.811126,-2.817305 1.811126,-3.622249 0,-0.804944 -0.804945,-4.427192 -0.804945,-4.427192 l -2.616067,-2.616068 2.01236,-2.414832 1.006178,-4.4271924 -1.006178,-3.2197762 c 0,0 -1.811126,-1.6098882 -2.616071,-1.6098882 -0.804941,0 -3.622246,-0.201236 -3.622246,-0.201236 z"
       id="path1939" />
  </g>
  <g
     inkscape:label="Layer 1"
     inkscape:groupmode="layer"
     id="layer1"
     transform="translate(-51.64165,-98.205211)">
    <circle
       style="display:inline;opacity:1;fill:none;fill-opacity:1;stroke:#000000;stroke-width:4.365;stroke-linecap:round;stroke-linejoin:round;stroke-dasharray:none;stroke-dashoffset:1.23024"
       id="path234"
       cx="103.82415"
       cy="150.38771"
       r="50" />
    <ellipse
       style="opacity:1;fill:url(#linearGradient3401);fill-opacity:1;stroke:#000000;stroke-width:1.965;stroke-linecap:round;stroke-linejoin:round;stroke-dasharray:none;stroke-dashoffset:1.23024"
       id="path2620"
       cx="90.079254"
       cy="147.73354"
       rx="3.2853227"
       ry="5.5108633" />
    <ellipse
       style="fill:url(#linearGradient3645);fill-opacity:1;stroke:#000000;stroke-width:1.965;stroke-linecap:round;stroke-linejoin:round;stroke-dasharray:none;stroke-dashoffset:1.23024"
       id="path2620-7"
       cx="113.18466"
       cy="147.73354"
       rx="3.2853227"
       ry="5.5108633" />
    <ellipse
       style="opacity:1;fill:#ffffff;fill-opacity:1;stroke:none;stroke-width:2.25284;stroke-linecap:round;stroke-linejoin:round;stroke-dasharray:none;stroke-dashoffset:1.23024"
       id="path3700"
       cx="89.656792"
       cy="146.53699"
       rx="1.1657596"
       ry="2.0895" />
    <ellipse
       style="fill:#ffffff;fill-opacity:1;stroke:none;stroke-width:2.25284;stroke-linecap:round;stroke-linejoin:round;stroke-dasharray:none;stroke-dashoffset:1.23024"
       id="path3700-8"
       cx="112.76075"
       cy="146.03789"
       rx="1.1657596"
       ry="2.0895" />
    <path
       style="fill:none;stroke:#000000;stroke-width:1.565;stroke-linecap:butt;stroke-linejoin:miter;stroke-dasharray:none;stroke-opacity:1"
       d="m 107.73561,100.93155 c 1.22825,0.76498 2.22213,1.90085 2.8173,3.21978 0.67487,1.49557 0.82955,3.21999 0.4316,4.81179 -0.39795,1.59179 -1.34592,3.04056 -2.64519,4.04259 1.20369,0.82593 2.13437,2.04297 2.61607,3.42101 0.43226,1.23659 0.50335,2.59705 0.20233,3.87196 -0.30102,1.2749 -0.97312,2.45989 -1.91284,3.37254 1.13346,0.96447 1.89949,2.35062 2.11298,3.82349 0.15633,1.0785 0.021,2.19785 -0.3879,3.20801 -0.40888,1.01015 -1.09023,1.90851 -1.95272,2.57462 -0.86248,0.66612 -1.90388,1.09828 -2.98458,1.23856 -1.0807,0.14028 -2.19793,-0.0117 -3.20189,-0.43554 -0.97733,0.45307 -2.07734,0.63807 -3.149108,0.5296 -1.071768,-0.10847 -2.112408,-0.5101 -2.979146,-1.1498 -0.866739,-0.6397 -1.557241,-1.51574 -1.976772,-2.50793 -0.41953,-0.9922 -0.566959,-2.09787 -0.422059,-3.16532 0.200409,-1.47638 0.969591,-2.86823 2.112979,-3.82349 -0.939717,-0.91265 -1.611818,-2.09764 -1.912837,-3.37254 -0.30102,-1.27491 -0.229929,-2.63537 0.202329,-3.87196 0.481703,-1.37804 1.412379,-2.59508 2.616068,-3.42101 -1.299272,-1.00203 -2.247245,-2.4508 -2.645193,-4.04259 -0.397949,-1.5918 -0.243274,-3.31622 0.431599,-4.81179 0.595168,-1.31893 1.589048,-2.4548 2.817304,-3.21978"
       id="path1065-9"
       inkscape:path-effect="#path-effect1067-3"
       inkscape:original-d="m 107.73561,100.93155 c 0.80468,0.93937 1.87793,2.14678 2.8173,3.21978 0.93937,1.07299 -1.47599,5.90319 -2.21359,8.85438 0.80467,1.00645 1.74378,2.28094 2.61607,3.42101 0.87228,1.14008 -1.20769,4.82993 -1.71051,7.2445 0.70406,1.1406 1.44193,2.54925 2.11298,3.82349 0.67105,1.27423 -4.42746,4.29329 -8.52709,6.58565 -4.099629,-2.00016 -9.198137,-5.01922 -8.527085,-6.29345 0.67105,-1.27424 1.408917,-2.68289 2.112979,-3.82349 -0.502828,-2.41457 -2.582794,-6.10442 -1.710508,-7.2445 0.872289,-1.14007 1.811391,-2.41456 2.616068,-3.42101 -0.7376,-2.95119 -3.15296,-7.78139 -2.213594,-8.85438 0.939366,-1.073 2.012624,-2.28041 2.817304,-3.21978"
       sodipodi:nodetypes="cscscscscscsc" />
    <path
       style="fill:url(#linearGradient4638);stroke:#000000;stroke-width:1.865;stroke-linecap:butt;stroke-linejoin:miter;stroke-dasharray:none;stroke-opacity:1;fill-opacity:1"
       d="m 107.7865,168.83905 c 1.64427,-2.9388 2.76336,-6.33699 2.21359,-9.65933 -0.0904,-0.54632 -0.22515,-1.0853 -0.40247,-1.60989 -0.83185,-1.58222 -2.19863,-2.87707 -3.82348,-3.62224 -2.25979,-1.03636 -4.95737,-0.97454 -7.244498,0 -1.688944,0.71966 -3.170403,1.91893 -4.225957,3.42101 -0.535205,0.85084 -0.881305,1.81992 -1.006181,2.8173 -0.213037,1.70152 0.213949,3.42115 0.804944,5.0309 1.559303,4.24722 4.306607,8.05118 7.848202,10.86675 2.33266,-2.06525 4.31462,-4.52561 5.83585,-7.2445 z"
       id="path1199"
       inkscape:path-effect="#path-effect1201"
       inkscape:original-d="m 107.7865,168.83905 c 1.94502,-2.41509 1.47599,-6.43929 2.21359,-9.65933 0.7376,-3.22004 -0.26805,-1.07299 -0.40247,-1.60989 -1.27423,-1.20715 -1.40891,-3.62251 -3.82348,-3.62224 -2.41457,2.6e-4 -5.83611,-1.20769 -7.244498,0 -1.408388,1.20768 -2.81704,2.41509 -4.225957,3.42101 -0.335129,0.67105 -0.670523,1.81139 -1.006181,2.8173 -0.335658,1.00592 0.536895,3.3542 0.804944,5.0309 0.26805,1.67671 5.2324,7.24477 7.848202,10.86675 1.94555,-2.34749 3.89083,-4.8294 5.83585,-7.2445 z"
       sodipodi:nodetypes="sscsscsscs" />
    <path
       style="fill:#000000;fill-rule:nonzero;stroke:none;stroke-width:0.264583px;stroke-linecap:butt;stroke-linejoin:miter;stroke-opacity:1"
       d="m 60.799776,170.56074 c 6.111007,-3.93873 9.737958,-9.81108 11.287119,-15.14871 1.767025,-6.09665 0.885772,-10.31883 0.885772,-10.31883 0,0 0.01816,4.29398 -2.334004,9.80477 -2.070019,4.85353 -5.832496,9.7995 -11.33376,13.34265 -0.547499,0.35276 -1.107947,0.6849 -1.680194,0.99515 l 1.315461,2.42634 c 0.634021,-0.34374 1.254294,-0.71136 1.859606,-1.10137 z"
       id="path1211"
       inkscape:path-effect="#path-effect1213;#path-effect1215"
       inkscape:original-d="m 72.972667,145.0932 c -0.536365,3.3542 -1.072994,6.70813 -1.609888,10.0618 -0.536894,3.35367 -8.719962,10.19622 -13.080341,15.29394" />
    <path
       style="fill:#000000;fill-rule:nonzero;stroke:none;stroke-width:0.264583px;stroke-linecap:butt;stroke-linejoin:miter;stroke-opacity:1"
       d="m 147.89905,169.84763 c -5.50127,-3.54316 -9.26374,-8.48912 -11.33376,-13.34265 -2.35217,-5.51079 -2.33401,-9.80477 -2.33401,-9.80477 0,0 -0.88125,4.22218 0.88577,10.31883 1.54917,5.33763 5.17612,11.20998 11.28712,15.14871 0.60531,0.39001 1.22559,0.75763 1.85961,1.10137 l 1.31546,-2.42634 c -0.57225,-0.31025 -1.1327,-0.64239 -1.68019,-0.99515 z"
       id="path1211-9"
       inkscape:path-effect="#path-effect1213-0;#path-effect1215-3"
       inkscape:original-d="m 134.23128,146.70021 c 0.53637,3.3542 1.07299,6.70813 1.60989,10.0618 0.53689,3.35367 8.71996,10.19622 13.08034,15.29394" />
    <path
       style="fill:#000000;fill-rule:nonzero;stroke:none;stroke-width:1.565;stroke-linecap:round;stroke-linejoin:round;stroke-dasharray:none;stroke-opacity:1"
       d="m 73.183782,174.01117 c 0.03992,-0.49221 0.104035,-0.97386 0.208643,-1.44547 0,0 0,0 0,0 0.403528,-1.8368 1.592603,-3.32418 1.592603,-3.32418 0,0 -2.052076,0.32132 -3.237062,2.7129 0,0 -1e-6,0 -1e-6,0 -0.285791,0.57858 -0.473914,1.22474 -0.527835,1.89873 -0.05297,0.65827 -0.01738,1.32497 0.107106,1.9749 0.248028,1.2949 0.848829,2.51945 1.703403,3.51364 0.405218,0.47142 0.867381,0.8892 1.369841,1.24624 1.227543,0.87333 2.66944,1.27091 4.029929,1.24346 0,0 0,0 0,0 1.738439,-0.0398 3.071415,-0.7465 3.877178,-1.37341 0.810695,-0.63074 1.129354,-1.15466 1.129354,-1.15466 0,0 -0.511316,0.34204 -1.407778,0.64653 -0.908252,0.30849 -2.155265,0.52923 -3.499674,0.29624 0,0 -10e-7,0 -10e-7,0 -1.043741,-0.17715 -2.077731,-0.61834 -2.987921,-1.26403 -0.376437,-0.26749 -0.718971,-0.57781 -1.016984,-0.92451 -0.638726,-0.74308 -1.079585,-1.64504 -1.26252,-2.6001 -0.09099,-0.47505 -0.117181,-0.96286 -0.07828,-1.44628 z"
       id="path1247"
       inkscape:path-effect="#path-effect1249;#path-effect1263"
       inkscape:original-d="m 74.985028,169.24152 c -0.80468,0.93937 -1.609624,2.01263 -2.414833,3.01854 -0.805208,1.00592 0.805209,4.2933 1.207416,6.43956 0.402208,2.14625 6.439817,0.40273 9.65933,0.6037" />
    <path
       style="fill:#000000;fill-rule:nonzero;stroke:none;stroke-width:1.565;stroke-linecap:round;stroke-linejoin:round;stroke-dasharray:none;stroke-opacity:1"
       d="m 90.159918,186.63344 c -0.530176,-0.30812 -1.023265,-0.66631 -1.458464,-1.07469 0,0 0,-1e-5 0,-1e-5 -1.115365,-1.03954 -1.77503,-2.32492 -2.110895,-3.41944 -0.328194,-1.06952 -0.336314,-1.8298 -0.336314,-1.8298 0,0 -0.324935,0.68726 -0.360742,1.91847 -0.0359,1.23446 0.280579,2.97265 1.535781,4.50398 0,0 0,0 0,0 0.494646,0.60005 1.101711,1.11917 1.792483,1.51914 0.904657,0.52465 1.911927,0.87638 2.946532,1.02888 0.787957,0.11672 1.585872,0.0925 2.349909,-0.064 0,0 0,0 0,0 2.137521,-0.44548 3.573162,-1.78893 4.333893,-2.91772 0.760993,-1.12918 0.884956,-1.96402 0.884956,-1.96402 0,0 -0.455434,0.70936 -1.417793,1.48072 -0.98029,0.78573 -2.408631,1.52824 -4.069255,1.67263 0,0 0,0 0,0 -0.5942,0.0543 -1.203422,0.0311 -1.809005,-0.0576 -0.801311,-0.11812 -1.580421,-0.39018 -2.281086,-0.79653 z"
       id="path1251"
       inkscape:path-effect="#path-effect1253;#path-effect1265"
       inkscape:original-d="m 86.254245,180.3095 c 0.536893,1.94555 1.20768,3.89083 1.811124,5.83585 0.603443,1.94501 7.78139,-1.20715 11.671688,-1.81113" />
    <path
       style="fill:#000000;fill-rule:nonzero;stroke:none;stroke-width:1.565;stroke-linecap:round;stroke-linejoin:round;stroke-dasharray:none;stroke-opacity:1"
       d="m 113.15322,186.59039 c -0.3169,0.0281 -0.63396,0.0404 -0.94935,0.0347 0,0 0,0 0,0 -1.45279,-0.0213 -2.7657,-0.46119 -3.77223,-1.01891 -0.97318,-0.53924 -1.52463,-1.09312 -1.52463,-1.09312 0,0 0.20734,0.75504 1.0149,1.7036 0.81449,0.95672 2.22852,2.00116 4.15252,2.22145 0,0 0,0 0,0 0.41098,0.0462 0.82836,0.0519 1.24417,0.0149 0.96321,-0.0855 1.91407,-0.34905 2.78439,-0.77816 1.24095,-0.61186 2.31807,-1.56182 3.0802,-2.71657 0.0765,-0.11591 0.14981,-0.2338 0.21986,-0.35347 0.66841,-1.14233 0.90713,-2.41251 0.83217,-3.55941 0,0 0,0 0,0 -0.1592,-2.40983 -1.45528,-3.57563 -1.45528,-3.57563 0,0 0.44297,1.61258 0.0577,3.50005 0,0 0,0 0,0 -0.18685,0.91937 -0.5445,1.82985 -1.0484,2.69034 -0.0532,0.0909 -0.1088,0.18029 -0.16671,0.26804 -0.58207,0.88192 -1.3987,1.60214 -2.34645,2.06943 -0.66176,0.32629 -1.38473,0.52717 -2.12281,0.59271 z"
       id="path1255"
       inkscape:path-effect="#path-effect1257;#path-effect1267"
       inkscape:original-d="m 106.90701,184.51308 c 1.74432,1.00645 3.48836,2.01263 5.23214,3.01854 1.74378,1.00592 4.42746,-6.7076 6.64079,-10.0618" />
    <path
       style="fill:#000000;fill-rule:nonzero;stroke:none;stroke-width:1.565;stroke-linecap:round;stroke-linejoin:round;stroke-dasharray:none;stroke-opacity:1"
       d="m 129.50505,174.70835 c -0.5655,0.26544 -1.14928,0.47366 -1.74188,0.60642 0,0 0,0 0,0 -1.42277,0.32315 -2.7858,0.19626 -3.84702,-0.0825 -1.0337,-0.27149 -1.66304,-0.63195 -1.66304,-0.63195 0,0 0.38704,0.61254 1.35117,1.28924 0.96788,0.67932 2.51258,1.35445 4.40799,1.21613 0,0 0,0 0,0 0.79443,-0.06 1.58913,-0.26486 2.33153,-0.61485 0.24326,-0.11447 0.48087,-0.2406 0.71179,-0.3776 1.44065,-0.85218 2.51646,-2.14257 3.10301,-3.57668 0,0 0,0 0,0 0.85312,-2.11344 0.52112,-4.10577 0.0373,-5.35493 -0.49005,-1.26532 -1.07607,-1.83817 -1.07607,-1.83817 0,0 0.34993,0.74189 0.47833,1.98553 0.12884,1.24776 -0.0205,2.95325 -0.92599,4.49189 0,0 0,0 0,0 -0.60546,1.04278 -1.52767,1.94647 -2.62178,2.59809 -0.17732,0.1052 -0.35937,0.20182 -0.54537,0.28934 z"
       id="path1259"
       inkscape:path-effect="#path-effect1261;#path-effect1269"
       inkscape:original-d="m 122.25311,174.60036 c 1.87847,0.53689 3.75667,1.07352 5.63461,1.60989 1.87794,0.53636 3.48836,-7.24423 5.23214,-10.86675" />
  </g>
</svg>
